<?xml version="1.0" encoding="utf-8"?>
<!-- Generator: Adobe Illustrator 19.2.0, SVG Export Plug-In . SVG Version: 6.00 Build 0)  -->
<svg version="1.1" id="Ebene_1" xmlns="http://www.w3.org/2000/svg" xmlns:xlink="http://www.w3.org/1999/xlink" x="0px" y="0px"
	 viewBox="0 0 401.1 400.8" style="enable-background:new 0 0 401.1 400.8;" xml:space="preserve">
<style type="text/css">
	.st0{fill:#D51224;}
</style>
<path d="M133.3,369.3l1.2-3.8c8.4-3.8,14.7-7.2,18.9-10.1c4.2-3,6.8-5.7,7.6-8.3c0.6-2,0.5-3.9-0.5-5.6c-0.9-1.7-2.5-2.8-4.6-3.5
	c-2.2-0.7-4.3-0.6-6,0.4c-1.8,0.9-3,2.5-3.8,4.9l-4.1-1.2c1.1-3.2,3-5.4,5.6-6.7c2.7-1.3,5.7-1.4,9.1-0.3c3.4,1,5.8,2.7,7.3,5.1
	c1.5,2.3,1.8,5,0.9,7.8c-0.9,3-3.3,5.9-7.2,8.9c-3.9,2.9-10.2,6.5-18.9,10.6l19,5.8l-1,3.4L133.3,369.3L133.3,369.3z"/>
<path d="M172,359.7c-0.6,5.7-0.3,10.1,0.8,13c1.2,2.9,3.3,4.6,6.3,4.9s5.4-0.8,7.2-3.5c1.8-2.6,3-6.8,3.6-12.6
	c0.6-5.7,0.3-10.1-0.9-13s-3.3-4.6-6.3-4.9s-5.4,0.8-7.2,3.5C173.8,349.8,172.6,354,172,359.7L172,359.7z M168.2,359.3
	c0.7-6.6,2.3-11.5,4.8-14.6s5.8-4.5,10-4.1s7.2,2.5,9,6.1s2.3,8.7,1.6,15.3c-0.7,6.6-2.3,11.5-4.8,14.7c-2.5,3.1-5.8,4.5-10,4
	c-4.2-0.4-7.2-2.5-9-6.1C168.1,371.1,167.5,366,168.2,359.3L168.2,359.3z"/>
<path d="M202.8,361.9c0.5,5.8,1.6,10,3.3,12.6c1.7,2.7,4.1,3.9,7.1,3.6s5.2-1.9,6.4-4.8s1.6-7.3,1.1-13c-0.5-5.8-1.6-10-3.3-12.6
	c-1.7-2.7-4.1-3.9-7.1-3.6s-5.2,1.8-6.4,4.8C202.7,351.8,202.3,356.1,202.8,361.9L202.8,361.9z M199,362.2
	c-0.6-6.6,0.1-11.7,1.9-15.3c1.8-3.6,4.9-5.5,9.1-5.9c4.2-0.4,7.5,1.1,9.9,4.3c2.4,3.2,3.9,8.1,4.5,14.7s-0.1,11.7-1.9,15.3
	c-1.8,3.6-4.9,5.5-9.1,5.9c-4.2,0.4-7.5-1.1-9.9-4.3C201.1,373.7,199.6,368.8,199,362.2L199,362.2z"/>
<path d="M234.9,367c0.8,2.3,2.1,3.9,4,4.7c1.9,0.9,4.2,0.9,6.8,0.2c2.8-0.8,4.8-2.1,6-4s1.5-4,0.9-6.3c-0.7-2.5-2.1-4.1-4.1-5
	c-2.1-0.9-4.7-0.9-7.7,0c-0.3,0.1-0.6,0.2-0.8,0.2c-0.2,0.1-0.4,0.1-0.5,0.2l-0.8-3c0.1,0,0.3-0.1,0.6-0.1c0.3-0.1,0.5-0.1,0.6-0.1
	c3-0.9,5.1-2.1,6.4-3.9c1.3-1.7,1.6-3.8,0.9-6.1c-0.6-2.2-1.9-3.7-3.8-4.6c-1.9-0.8-4.2-0.9-6.9-0.1c-2.4,0.7-4.2,1.9-5.3,3.5
	s-1.4,3.6-1,6l-3.5,1c-0.7-3.1-0.2-5.8,1.4-8.3c1.7-2.4,4.2-4.2,7.6-5.1c3.6-1,6.7-0.9,9.5,0.4s4.6,3.4,5.5,6.4
	c0.6,2.2,0.5,4.2-0.5,6c-0.9,1.8-2.6,3.4-5,4.8c2.9-0.2,5.4,0.3,7.2,1.5c1.9,1.2,3.2,3,3.9,5.5c0.9,3.1,0.4,6-1.4,8.6
	c-1.8,2.6-4.6,4.5-8.3,5.6s-7,1-9.7-0.3c-2.8-1.2-4.7-3.5-5.7-6.7L234.9,367L234.9,367z"/>
<path class="st0" d="M176,237.8l106.9-63.9v112.3h-41.2v-63.4l-25.3,15v48.4H176V237.8L176,237.8z M241.7,112.6h41.2v47.7
	l-129.7,77.5v48.4h-41.5v-48.4l129.9-77.5v-47.7H241.7z M111.8,112.6h41.5v61.3l22.7-13.6v-47.7h40.4v47.7l-104.6,62.5L111.8,112.6
	L111.8,112.6z"/>
<path d="M80.3,112.4l-15.7-15c-0.7-0.6-1.3-1.3-2.1-1.9c-0.7-0.6-1.6-1.4-2.7-2.4l2.4-2.5l3.5,3.2c-0.3-2.1-0.2-4.1,0.2-5.7
	c0.4-1.7,1.2-3.1,2.4-4.4c2.3-2.4,4.6-3.5,6.9-3.3c2.4,0.1,4.9,1.5,7.7,4.2l12.5,12L93.2,99L80.9,87.3c-2.2-2.1-4.1-3.2-5.7-3.4
	c-1.7-0.2-3.3,0.6-4.8,2.2c-1.7,1.8-2.6,3.9-2.5,6.2c0.1,2.3,1,4.4,2.9,6.2l11.9,11.4L80.3,112.4L80.3,112.4z"/>
<path d="M79.5,63.5l-2.8-3.6l3.3-2.6l2.8,3.6L79.5,63.5L79.5,63.5z M101.9,91.4l-17.4-22l2.7-2.2l17.4,22.1L101.9,91.4L101.9,91.4z"
	/>
<polygon points="116.8,80.4 92.7,61.9 95.8,60.1 115.9,75.7 111.8,50.7 114.9,48.9 119.2,79 "/>
<path d="M128.9,55.5l16.5-6.4c-1.2-2.8-2.9-4.7-5-5.7s-4.3-1.1-6.7-0.1c-2.3,0.9-3.9,2.4-4.7,4.5C128.1,49.9,128.1,52.4,128.9,55.5
	L128.9,55.5z M151.2,54.8c0.7,3,0.4,5.6-1,8c-1.4,2.4-3.7,4.2-6.8,5.4c-3.7,1.4-7,1.3-10.2-0.3c-3.1-1.6-5.5-4.5-7.1-8.6
	c-1.6-4.2-1.8-8-0.6-11.4c1.2-3.4,3.7-5.8,7.3-7.3c3.5-1.4,6.8-1.3,9.8,0.3s5.3,4.3,6.9,8.3l0.4,0.9l-20.1,7.8
	c1.3,3.4,3.1,5.7,5.4,7c2.3,1.3,4.8,1.4,7.6,0.3c2-0.8,3.4-2,4.4-3.7s1.3-3.6,0.8-5.6L151.2,54.8L151.2,54.8z"/>
<path d="M160.4,61.7l-3.8-21c-0.1-0.4-0.2-1-0.4-1.8s-0.5-2.4-1.1-4.8l3.4-0.6l1,4.2c0.5-1.6,1.3-2.9,2.5-3.9c1.1-1,2.6-1.6,4.5-1.9
	c0.2,0,0.4-0.1,0.6-0.1c0.2,0,0.6-0.1,1.1-0.1l0.6,3.3c-0.3,0-0.6,0.1-0.8,0.1c-0.3,0-0.6,0.1-1,0.2c-2.4,0.4-4.1,1.5-5.2,3.2
	c-1.1,1.7-1.4,3.9-0.9,6.5l2.9,16.1L160.4,61.7L160.4,61.7z"/>
<path d="M178.6,51c0.2,1.7,0.9,3,2.2,3.9s3.1,1.3,5.3,1.2c2.4-0.1,4.3-0.7,5.6-1.8c1.4-1.1,2-2.5,2-4.1c0-1.3-0.5-2.2-1.4-2.9
	s-2.7-1.4-5.4-2c-0.5-0.1-1.3-0.3-2.2-0.5c-3-0.7-5-1.3-5.8-1.7c-1.1-0.7-2-1.4-2.6-2.3c-0.6-0.9-0.9-1.9-0.9-3.1
	c-0.1-2.4,0.7-4.4,2.5-5.9c1.8-1.5,4.2-2.3,7.4-2.4s5.7,0.4,7.4,1.7c1.8,1.2,2.7,3.1,2.9,5.6l-3.5,0.1c-0.2-1.7-0.9-2.9-2-3.7
	s-2.7-1.1-4.8-1s-3.8,0.6-4.9,1.4c-1.2,0.9-1.7,2.1-1.6,3.5c0.1,2.1,2.6,3.6,7.7,4.6c0.6,0.1,1.1,0.2,1.5,0.3c3.6,0.8,6,1.7,7.3,2.9
	c1.3,1.1,2,2.8,2.1,4.9c0.1,2.7-0.8,4.9-2.8,6.5c-2,1.7-4.7,2.6-8.2,2.7c-3.4,0.1-6.1-0.5-8-1.8s-3-3.3-3.2-5.9L178.6,51L178.6,51z"
	/>
<path d="M205.7,22.1l0.3-4.6l4.2,0.3l-0.3,4.6L205.7,22.1L205.7,22.1z M203.7,57.9l1.8-28l3.5,0.2l-1.8,28L203.7,57.9L203.7,57.9z"
	/>
<path d="M221,52.5c-0.3,1.8-0.2,3.1,0.2,3.9c0.5,0.8,1.4,1.4,2.7,1.6c0.5,0.1,1,0.1,1.5,0.1s1,0,1.6-0.1l-0.5,3c-0.8,0-1.5,0-2.2,0
	s-1.2-0.1-1.7-0.1c-2.2-0.4-3.7-1.2-4.6-2.4c-0.9-1.3-1.2-3-0.8-5.1l3.3-19.3l-5.4-0.9l0.4-2.6l5.4,0.9l1-5.8l3.7-0.9l-1.2,7.3
	l6.2,1.1l-0.5,2.6l-6.2-1.1L221,52.5L221,52.5z"/>
<path d="M251.2,52.9l-3.9-1.2c-3.3-1.1-6-1.3-8.2-0.8c-2.1,0.5-3.5,1.8-4.2,3.8c-0.5,1.6-0.4,3.1,0.4,4.4c0.8,1.3,2.1,2.3,4,2.9
	c2.3,0.7,4.5,0.6,6.5-0.4s3.4-2.6,4.1-4.8L251.2,52.9L251.2,52.9z M247.3,66.8l1.2-4.6c-1.5,1.4-3.1,2.2-4.9,2.6s-3.7,0.3-5.7-0.4
	c-2.7-0.9-4.6-2.3-5.7-4.2c-1.1-1.9-1.3-4.2-0.5-6.6c0.9-2.7,2.7-4.5,5.5-5.4s6.2-0.6,10.2,0.6l4.6,1.5l1-3.1
	c0.6-1.8,0.4-3.3-0.4-4.6c-0.8-1.3-2.3-2.3-4.4-2.9c-1.9-0.6-3.6-0.7-5-0.2s-2.4,1.5-3,2.9l-3.4-1.1c1-2.3,2.6-3.8,4.7-4.5
	c2.1-0.7,4.6-0.6,7.5,0.3c1.6,0.5,2.9,1.1,4.1,1.9c1.1,0.7,2,1.6,2.6,2.5c0.7,1.1,1.1,2.3,1.2,3.5c0,1.2-0.4,3.2-1.2,5.9L252,62.6
	c-0.2,0.7-0.4,1.5-0.6,2.4c-0.2,0.9-0.4,1.8-0.5,2.8L247.3,66.8L247.3,66.8z M253.2,33.1l1.3-4.2l3.7,1.2l-1.3,4.2L253.2,33.1
	L253.2,33.1z M244.9,30.4l1.3-4.2l3.7,1.2l-1.3,4.2L244.9,30.4L244.9,30.4z"/>
<path d="M264.7,67.1c-0.8,1.6-1.1,2.9-0.9,3.9c0.2,0.9,0.9,1.7,2.2,2.3c0.4,0.2,0.9,0.4,1.4,0.5c0.5,0.2,1,0.3,1.6,0.3l-1.3,2.8
	c-0.8-0.2-1.5-0.4-2.1-0.6s-1.1-0.4-1.5-0.6c-2-0.9-3.2-2.1-3.7-3.6s-0.3-3.2,0.7-5.1l8.5-17.7l-5-2.4l1.2-2.4l5,2.4l2.5-5.3
	l3.8,0.1l-3.2,6.7l5.7,2.7l-1.2,2.4l-5.7-2.7L264.7,67.1L264.7,67.1z"/>
<polygon points="285.3,87.4 312.7,57.8 315.3,60.2 303.2,73.4 319.2,88.1 331.3,75 334,77.4 306.7,107.1 304,104.6 317.1,90.4 
	301,75.7 288,89.9 "/>
<path d="M340.5,92.9l3.7-2.7l2.5,3.4l-3.7,2.7L340.5,92.9L340.5,92.9z M311.9,114.4l22.6-16.7l2.1,2.8L314,117.2L311.9,114.4
	L311.9,114.4z"/>
<polygon points="318.6,123.6 352.3,101.4 354.2,104.3 320.5,126.5 "/>
<path d="M371.2,136.4l-30,14.2c-0.2,0.1-1,0.5-2.4,1.3c-1.4,0.7-2.7,1.5-4,2.1l-1.5-3.2l4.1-2.1c-2.2-0.3-3.9-0.9-5.4-1.9
	c-1.4-1-2.5-2.4-3.4-4.2c-1.5-3.2-1.6-6.4-0.1-9.4c1.5-3.1,4.2-5.5,8.2-7.4c4.2-2,7.9-2.6,11.2-1.8c3.3,0.8,5.7,2.8,7.2,6.1
	c0.9,1.8,1.2,3.6,1.1,5.4c-0.1,1.8-0.7,3.5-1.8,5.3l15.2-7.2L371.2,136.4L371.2,136.4z M346,144.5c3.3-1.5,5.5-3.5,6.7-5.8
	s1.2-4.7,0-7.2s-3-3.9-5.5-4.4s-5.5,0.1-8.9,1.8c-3.3,1.6-5.6,3.5-6.8,5.8c-1.2,2.3-1.2,4.6-0.1,7.1c1.2,2.5,3,4,5.6,4.5
	C339.6,146.7,342.6,146.2,346,144.5L346,144.5z"/>
<path d="M353.6,159.4l4.4,17.1c2.9-0.9,5-2.3,6.2-4.3c1.3-1.9,1.6-4.2,0.9-6.7c-0.6-2.4-1.9-4.2-3.9-5.2
	C359.3,159.3,356.7,159,353.6,159.4L353.6,159.4z M351.6,181.7c-3,0.3-5.6-0.3-7.8-2c-2.2-1.7-3.7-4.1-4.5-7.4
	c-1-3.8-0.5-7.2,1.5-10.1c2-2.9,5.1-4.9,9.4-6c4.4-1.1,8.2-0.9,11.4,0.8c3.2,1.6,5.3,4.4,6.3,8.1c0.9,3.6,0.4,6.9-1.5,9.7
	s-5,4.8-9.1,5.8l-1,0.3L351,160c-3.5,0.9-6.1,2.4-7.6,4.5s-1.9,4.6-1.2,7.5c0.5,2,1.6,3.6,3.1,4.8c1.6,1.2,3.4,1.7,5.4,1.5
	L351.6,181.7L351.6,181.7z"/>
<path d="M350.6,191.4c-1.7,0.2-3,0.9-3.9,2.2s-1.3,3.1-1.2,5.3c0.1,2.4,0.7,4.3,1.8,5.6c1.1,1.4,2.5,2,4.1,2c1.3,0,2.2-0.5,2.9-1.4
	c0.7-0.9,1.4-2.7,2-5.4c0.1-0.5,0.3-1.3,0.5-2.2c0.7-3.1,1.2-5,1.7-5.8c0.7-1.1,1.4-2,2.3-2.6s1.9-0.9,3.1-0.9
	c2.4-0.1,4.4,0.7,5.9,2.5s2.3,4.2,2.4,7.4s-0.4,5.7-1.7,7.4c-1.2,1.8-3.1,2.8-5.5,2.9l-0.1-3.5c1.7-0.2,2.9-0.9,3.7-2
	c0.8-1.1,1.1-2.8,1-4.8c-0.1-2.1-0.6-3.8-1.4-4.9c-0.9-1.2-2.1-1.7-3.5-1.6c-2.1,0.1-3.6,2.7-4.6,7.7c-0.1,0.7-0.2,1.1-0.3,1.5
	c-0.8,3.6-1.7,6-2.8,7.4c-1.1,1.3-2.8,2-4.9,2.1c-2.7,0.1-4.9-0.8-6.5-2.8c-1.7-2-2.6-4.7-2.7-8.2c-0.1-3.4,0.4-6.1,1.8-8
	c1.3-1.9,3.3-3,5.9-3.3L350.6,191.4L350.6,191.4z"/>
<path d="M344,216.4l39.8,6.7l-0.6,3.4l-16.7-2.8c1.5,1.6,2.5,3.2,3,4.8c0.6,1.6,0.7,3.3,0.4,5c-0.5,3.2-1.8,5.4-3.9,6.6
	c-2,1.2-4.9,1.5-8.7,0.9l-17.1-2.9l0.6-3.4l16.7,2.8c2.9,0.5,5.1,0.3,6.6-0.5s2.4-2.3,2.8-4.5c0.4-2.5,0-4.7-1.4-6.6
	c-1.4-1.9-3.3-3-5.9-3.4l-16.3-2.8L344,216.4L344,216.4z"/>
<path d="M353,254l-6.2,16.6c2.9,0.9,5.4,0.9,7.6,0.1c2.2-0.9,3.7-2.5,4.6-4.9c0.9-2.3,0.8-4.5-0.2-6.5
	C357.8,257.2,355.9,255.5,353,254L353,254z M338.7,271.1c-2.7-1.5-4.4-3.5-5.2-6.1c-0.8-2.6-0.7-5.5,0.5-8.7c1.4-3.7,3.7-6.1,7-7.4
	c3.3-1.3,7-1.1,11.1,0.5c4.2,1.6,7.2,4,8.9,7.2c1.7,3.2,1.9,6.6,0.5,10.3c-1.3,3.5-3.6,5.9-6.8,7.1c-3.2,1.2-6.8,1.1-10.8-0.5
	l-0.9-0.4l7.6-20.2c-3.4-1.3-6.4-1.5-8.8-0.7c-2.5,0.8-4.2,2.7-5.3,5.5c-0.7,2-0.8,3.9-0.2,5.7c0.6,1.9,1.8,3.3,3.6,4.3L338.7,271.1
	L338.7,271.1z"/>
<path d="M359,289.6l4,2.2l-2,3.7l-4-2.2L359,289.6L359,289.6z M327.5,272.8l24.7,13.5l-1.7,3.1l-24.7-13.5L327.5,272.8L327.5,272.8z
	"/>
<path d="M322.9,283.9l16.7,13.8c0.7,0.6,1.4,1.2,2.2,1.8c0.8,0.6,1.7,1.3,2.9,2.2l-2.2,2.6l-3.8-2.9c0.5,2.2,0.6,4.1,0.2,5.8
	c-0.3,1.7-1,3.2-2.1,4.5c-1.4,1.7-3,2.8-4.6,3.4c-1.7,0.5-3.5,0.4-5.4-0.2c0.6,2.5,0.7,4.6,0.4,6.3c-0.3,1.8-1,3.3-2.1,4.7
	c-2,2.5-4.2,3.7-6.6,3.7s-5-1.2-8-3.6l-13.3-11l2.2-2.6l13,10.8c2.3,1.9,4.3,2.9,6,2.9c1.7,0.1,3.3-0.8,4.7-2.5c1.6-1.9,2.3-4,2-6.3
	c-0.2-2.3-1.4-4.3-3.4-5.9L309,300.9l2.2-2.6l13,10.8c2.3,1.9,4.3,2.9,6,2.9c1.7,0.1,3.2-0.7,4.6-2.5c1.6-1.9,2.3-4,2.1-6.3
	c-0.2-2.3-1.4-4.3-3.4-5.9l-12.7-10.5L322.9,283.9L322.9,283.9z"/>
<path d="M48.3,132.9l-20.9-12.4l1.8-3.1l20.2,12.1c4.3,2.5,7.8,3.6,10.7,3.3c2.9-0.4,5.3-2.2,7.3-5.5c1.9-3.2,2.3-6.2,1.2-9
	c-1.1-2.8-3.7-5.4-7.7-7.9L40.7,98.3l1.6-2.7l20.3,12.1c2.9,1.8,5,3.2,6.2,4.5c1.2,1.2,2.1,2.6,2.7,4.1c0.8,2,1.1,4.1,0.9,6.3
	c-0.3,2.2-1,4.4-2.4,6.6c-2.5,4.1-5.5,6.5-9.2,7.2C57.3,136.9,53.1,135.8,48.3,132.9L48.3,132.9z"/>
<path d="M90.1,326.2c1.8-1.8,2.5-3.8,2.3-5.9c-0.2-2.2-1.4-4.4-3.6-6.6c-2.1-2.1-4.3-3.4-6.6-3.7c-2.3-0.4-4.3,0.3-5.9,1.8
	c-0.8,0.8-1.4,1.7-1.7,2.7c-0.3,1-0.4,2.1-0.2,3.3c0.1,0.8,0.8,2.4,1.9,4.8c0.7,1.5,1.3,2.6,1.7,3.5c1.9,4.2,2.9,7.5,2.8,9.8
	c0,2.3-1,4.4-2.8,6.2c-2.2,2.2-4.9,3.1-8,2.8c-3.1-0.3-5.9-1.8-8.6-4.6c-2.8-2.9-4.4-5.6-4.8-8.4c-0.4-2.7,0.3-5.2,2.3-7.4l2.6,2.6
	c-1.4,1.5-1.9,3.2-1.6,5.1c0.3,1.9,1.4,3.7,3.3,5.7c2,2.1,4.1,3.3,6.3,3.6c2.2,0.3,4.1-0.3,5.7-1.9c1.3-1.3,1.9-2.7,1.9-4.4
	c-0.1-1.7-1.1-4.6-3.1-8.8c-0.1-0.3-0.3-0.7-0.6-1.2c-1.8-3.8-2.7-6.5-2.8-8.1c-0.1-1.5,0.1-2.9,0.6-4.1s1.3-2.4,2.4-3.5
	c2.4-2.4,5.2-3.3,8.3-2.9c3.1,0.4,6.2,2.1,9.2,5.2c2.9,3,4.6,6,4.9,8.9s-0.7,5.7-3.1,8.5L90.1,326.2L90.1,326.2z"/>
<path d="M68.2,296.1c1.5-1,2.4-2,2.7-2.9c0.3-0.9,0.1-1.9-0.7-3.1c-0.3-0.4-0.6-0.8-0.9-1.2c-0.3-0.4-0.7-0.7-1.1-1.1l2.6-1.7
	c0.6,0.6,1.1,1.1,1.5,1.6s0.8,0.9,1,1.3c1.2,1.8,1.6,3.5,1.3,5c-0.3,1.5-1.4,2.9-3.2,4.1L55,308.9l3,4.6l-2.2,1.5l-3-4.6l-4.9,3.2
	l-3.2-2.1l6.2-4l-3.5-5.3l2.2-1.5l3.5,5.3L68.2,296.1L68.2,296.1z"/>
<path d="M36.3,299.2l-4.1,2.1l-1.9-3.7l4.1-2.1L36.3,299.2L36.3,299.2z M68,282.6l-25,12.8l-1.6-3.1l25-12.8L68,282.6L68,282.6z"/>
<path d="M61.8,270.8l-23.5,9.6l2.1,5l-2.5,1l-2.1-5l-6.2,2.5c-1.9,0.8-3.6,0.9-4.9,0.3s-2.4-1.9-3.2-3.8c-0.1-0.3-0.3-0.8-0.5-1.4
	s-0.4-1.3-0.6-2.1l2.7-1.1c0,0,0,0.1,0.1,0.2c0.3,1,0.6,1.7,0.8,2.1c0.6,1.5,1.2,2.4,1.9,2.7c0.7,0.3,1.8,0.2,3.2-0.4l5.4-2.2
	l-2.4-6l2.5-1l2.4,6l23.5-9.6L61.8,270.8L61.8,270.8z"/>
<path d="M47.7,253.7c1.7-0.5,2.9-1.1,3.5-1.9c0.5-0.8,0.6-1.8,0.2-3.2c-0.1-0.5-0.3-0.9-0.5-1.4s-0.5-0.9-0.8-1.4L53,245
	c0.4,0.7,0.7,1.4,1,2s0.5,1.1,0.6,1.6c0.6,2.1,0.5,3.8-0.2,5.2c-0.7,1.3-2.2,2.3-4.3,2.9l-18.8,5.5l1.5,5.3l-2.6,0.7l-1.5-5.3
	l-5.6,1.6l-2.4-2.9l7.1-2.1l-1.8-6.1l2.6-0.7l1.8,6.1L47.7,253.7L47.7,253.7z"/>
<path d="M20.2,223.2l21.4-3.1c0.9-0.1,1.9-0.3,2.8-0.4c1-0.2,2.1-0.4,3.6-0.7l0.5,3.3l-4.4,0.8c1.9,1.1,3.4,2.4,4.4,3.7
	c1,1.4,1.7,2.9,1.9,4.6c0.5,3.2-0.1,5.7-1.7,7.5c-1.6,1.8-4.2,2.9-8,3.5l-17.5,2.5l-0.5-3.4l17-2.4c2.9-0.4,5-1.2,6.1-2.5
	c1.2-1.2,1.6-2.9,1.3-5.2c-0.4-2.5-1.5-4.5-3.3-5.8c-1.8-1.4-4-1.8-6.6-1.5l-16.7,2.4L20.2,223.2L20.2,223.2z"/>
<path d="M47.4,211.3l-21.6-1.4c-0.9-0.1-1.8-0.1-2.8-0.1s-2.2-0.1-3.6-0.1l0.2-3.4l4.8,0.1c-1.6-1.5-2.8-3-3.5-4.6s-1.1-3.2-1-4.9
	c0.2-3.3,1.3-5.6,3.2-7c1.9-1.4,4.7-2,8.6-1.8l17.3,1.1l-0.2,3.5L32,191.6c-3-0.2-5.2,0.2-6.6,1.1c-1.4,0.9-2.1,2.5-2.3,4.8
	c-0.2,2.5,0.5,4.6,2,6.4c1.5,1.7,3.6,2.7,6.2,2.9l16.5,1.1L47.4,211.3L47.4,211.3z"/>
<path d="M36.4,175.5c3.6,1,6.5,1.1,8.8,0.2c2.3-0.9,3.8-2.6,4.6-5.3c0.7-2.6,0.4-5-1.1-7.1s-3.9-3.6-7.3-4.5c-3.5-1-6.5-1-8.8,0
	c-2.4,1-4,2.8-4.7,5.5c-0.7,2.5-0.3,4.8,1.2,6.8C30.5,173.1,33,174.6,36.4,175.5L36.4,175.5z M53.9,158.8c4.5,1.3,7.5,3.2,9,5.6
	c1.5,2.5,1.7,5.8,0.6,9.9c-1,3.4-2.4,5.9-4.2,7.3c-1.8,1.5-4,1.9-6.6,1.3l1-3.7c1.6,0.4,3,0.1,4.2-0.9s2.1-2.6,2.7-4.9
	c0.8-2.8,0.6-5.1-0.5-7s-3.1-3.2-6-4.1l-4.1-1.1c1.4,1.6,2.3,3.3,2.7,5s0.3,3.6-0.3,5.6c-1,3.4-3,5.8-6,7c-3,1.3-6.7,1.3-11,0.1
	c-4.1-1.2-7.1-3.1-9-5.9c-1.9-2.7-2.3-5.8-1.4-9.3c0.6-2,1.4-3.6,2.6-4.8s2.8-2.2,4.8-2.8l-4.3-1.4l1-3.4c1.7,0.6,3.1,1.1,4.2,1.4
	c1.1,0.4,2,0.7,2.6,0.8L53.9,158.8L53.9,158.8z"/>
</svg>
